<mxfile host="65bd71144e">
    <diagram id="37zST0o-0u5W7jo_JLkB" name="ページ1">
        <mxGraphModel dx="575" dy="514" grid="1" gridSize="10" guides="1" tooltips="1" connect="1" arrows="1" fold="1" page="1" pageScale="1" pageWidth="827" pageHeight="1169" background="#ffffff" math="0" shadow="0">
            <root>
                <mxCell id="0"/>
                <mxCell id="1" parent="0"/>
                <mxCell id="23" value="Clean Architecture" style="swimlane;strokeColor=#000000;strokeWidth=2;fontColor=#FFFFFF;" vertex="1" parent="1">
                    <mxGeometry x="80" y="160" width="1100" height="790" as="geometry"/>
                </mxCell>
                <mxCell id="26" value="" style="rounded=1;whiteSpace=wrap;html=1;strokeColor=#36393d;strokeWidth=2;fillColor=#cce5ff;" vertex="1" parent="23">
                    <mxGeometry x="40" y="80" width="600" height="350" as="geometry"/>
                </mxCell>
                <mxCell id="40" value="" style="edgeStyle=none;rounded=1;html=1;strokeColor=#000000;strokeWidth=2;fontSize=24;fontColor=#000000;" edge="1" parent="23" source="27" target="28">
                    <mxGeometry relative="1" as="geometry"/>
                </mxCell>
                <mxCell id="27" value="&lt;font style=&quot;font-size: 24px;&quot; color=&quot;#000000&quot;&gt;View&lt;/font&gt;" style="rounded=0;whiteSpace=wrap;html=1;strokeColor=#36393d;strokeWidth=2;fillColor=#f9f7ed;" vertex="1" parent="23">
                    <mxGeometry x="60" y="150" width="120" height="60" as="geometry"/>
                </mxCell>
                <mxCell id="41" value="" style="edgeStyle=none;rounded=1;html=1;strokeColor=#000000;strokeWidth=2;fontSize=24;fontColor=#000000;" edge="1" parent="23" source="28" target="32">
                    <mxGeometry relative="1" as="geometry"/>
                </mxCell>
                <mxCell id="42" value="" style="edgeStyle=none;rounded=1;html=1;strokeColor=#000000;strokeWidth=2;fontSize=24;fontColor=#000000;" edge="1" parent="23" source="28" target="29">
                    <mxGeometry relative="1" as="geometry"/>
                </mxCell>
                <mxCell id="28" value="&lt;font style=&quot;font-size: 24px;&quot; color=&quot;#000000&quot;&gt;View Model&lt;/font&gt;" style="rounded=0;whiteSpace=wrap;html=1;strokeColor=#36393d;strokeWidth=2;fillColor=#f9f7ed;" vertex="1" parent="23">
                    <mxGeometry x="280" y="150" width="120" height="60" as="geometry"/>
                </mxCell>
                <mxCell id="31" style="edgeStyle=none;html=1;exitX=0.25;exitY=1;exitDx=0;exitDy=0;fontSize=24;fontColor=#FFFFFF;" edge="1" parent="23" source="29" target="26">
                    <mxGeometry relative="1" as="geometry"/>
                </mxCell>
                <mxCell id="29" value="&lt;font style=&quot;font-size: 24px;&quot; color=&quot;#000000&quot;&gt;Model&lt;/font&gt;" style="rounded=0;whiteSpace=wrap;html=1;strokeColor=#36393d;strokeWidth=2;fillColor=#f9f7ed;" vertex="1" parent="23">
                    <mxGeometry x="500" y="150" width="120" height="60" as="geometry"/>
                </mxCell>
                <mxCell id="30" value="&lt;font color=&quot;#ffffff&quot;&gt;MVVM&lt;/font&gt;" style="ellipse;whiteSpace=wrap;html=1;align=center;newEdgeStyle={&quot;edgeStyle&quot;:&quot;entityRelationEdgeStyle&quot;,&quot;startArrow&quot;:&quot;none&quot;,&quot;endArrow&quot;:&quot;none&quot;,&quot;segment&quot;:10,&quot;curved&quot;:1,&quot;sourcePerimeterSpacing&quot;:0,&quot;targetPerimeterSpacing&quot;:0};treeFolding=1;treeMoving=1;strokeColor=default;strokeWidth=2;fontSize=24;fontColor=#000000;" vertex="1" parent="23">
                    <mxGeometry x="510" y="90" width="100" height="40" as="geometry"/>
                </mxCell>
                <mxCell id="32" value="&lt;font color=&quot;#000000&quot;&gt;&lt;span style=&quot;font-size: 24px;&quot;&gt;State&lt;/span&gt;&lt;/font&gt;" style="rounded=0;whiteSpace=wrap;html=1;strokeColor=#36393d;strokeWidth=2;fillColor=#f9f7ed;" vertex="1" parent="23">
                    <mxGeometry x="280" y="300" width="120" height="60" as="geometry"/>
                </mxCell>
                <mxCell id="33" value="&lt;font color=&quot;#000000&quot;&gt;Presenter&lt;/font&gt;" style="text;html=1;strokeColor=#000000;fillColor=#FFFFFF;align=center;verticalAlign=middle;whiteSpace=wrap;rounded=0;strokeWidth=2;fontSize=24;fontColor=#FFFFFF;" vertex="1" parent="23">
                    <mxGeometry x="254" y="70" width="160" height="30" as="geometry"/>
                </mxCell>
                <mxCell id="34" value="&lt;font color=&quot;#000000&quot;&gt;&lt;span style=&quot;font-size: 24px;&quot;&gt;Provider&lt;/span&gt;&lt;/font&gt;" style="rounded=0;whiteSpace=wrap;html=1;strokeColor=#36393d;strokeWidth=2;fillColor=#f9f7ed;" vertex="1" parent="23">
                    <mxGeometry x="60" y="300" width="120" height="60" as="geometry"/>
                </mxCell>
                <mxCell id="38" value="" style="endArrow=classic;html=1;fontSize=24;fontColor=#000000;strokeColor=#000000;strokeWidth=2;rounded=1;exitX=0.5;exitY=1;exitDx=0;exitDy=0;" edge="1" parent="23" source="27" target="34">
                    <mxGeometry width="50" height="50" relative="1" as="geometry">
                        <mxPoint x="370" y="300" as="sourcePoint"/>
                        <mxPoint x="420" y="250" as="targetPoint"/>
                    </mxGeometry>
                </mxCell>
            </root>
        </mxGraphModel>
    </diagram>
</mxfile>